<svg width="24" height="24" viewBox="0 0 24 24" fill="none" xmlns="http://www.w3.org/2000/svg">
<mask id="mask0_154_11817" style="mask-type:alpha" maskUnits="userSpaceOnUse" x="0" y="0" width="24" height="24">
<rect width="24" height="24" fill="#D9D9D9"/>
</mask>
<g mask="url(#mask0_154_11817)">
<path fill-rule="evenodd" clip-rule="evenodd" d="M7 11.3584L12.1189 6.23947L17 11.1205V18H13V14C13 13.4477 12.5523 13 12 13C11.4477 13 11 13.4477 11 14V18H7L7 11.3584ZM6 20C5.44772 20 5 19.5523 5 19V11C5 10.917 5.01011 10.8364 5.02917 10.7593C5.06296 10.5627 5.15576 10.3742 5.30754 10.2224L11.3903 4.1397C11.514 4.01595 11.6621 3.93142 11.8192 3.88609C12.1658 3.77293 12.562 3.85409 12.8374 4.12956L18.7197 10.0119C18.9623 10.2544 19.0542 10.5906 18.9955 10.904C18.9985 10.9356 19 10.9676 19 11V19C19 19.5523 18.5523 20 18 20H12H6Z" fill="white"/>
</g>
</svg>
