<svg width="24" height="24" viewBox="0 0 24 24" fill="none" xmlns="http://www.w3.org/2000/svg">
<path d="M11.9653 1.95312C9.18584 1.95312 6.93264 4.19212 6.93264 6.95312V10.9531C6.93264 13.7141 9.18584 15.9531 11.9653 15.9531C14.7448 15.9531 16.998 13.7141 16.998 10.9531V6.95312C16.998 4.19212 14.7448 1.95312 11.9653 1.95312ZM11.9784 3.95312C13.6461 3.95312 14.998 5.29612 14.998 6.95312V10.9531C14.998 12.6101 13.6461 13.9531 11.9784 13.9531C10.3107 13.9531 8.95874 12.6101 8.95874 10.9531V6.95312C8.95874 5.29612 10.3107 3.95312 11.9784 3.95312ZM5.29654 13.9361C5.04814 13.8681 4.74884 13.8791 4.50704 14.0151C4.02354 14.2881 3.85534 14.9101 4.12964 15.3911C5.55934 17.8941 8.01544 19.5691 11.0031 19.8981L10.998 20.9531C10.998 21.5051 11.4421 21.9531 11.998 21.9531C12.5539 21.9531 12.998 21.5051 12.998 20.9531L12.9938 19.8931C15.8491 19.5721 18.4171 17.9211 19.8568 15.4531C20.1356 14.9751 19.9918 14.3861 19.5108 14.1091C19.0299 13.8321 18.4056 13.9751 18.1268 14.4531C16.8744 16.6001 14.5409 17.9531 11.998 17.9531C9.43194 17.9531 7.12444 16.5921 5.88074 14.4141C5.74364 14.1741 5.54484 14.0051 5.29654 13.9361Z" fill="white"/>
</svg>
