<svg width="12" height="11" viewBox="0 0 12 11" fill="none" xmlns="http://www.w3.org/2000/svg">
<path d="M0.916748 10.2244C0.916748 10.6386 1.25253 10.9744 1.66675 10.9744C2.08096 10.9744 2.41675 10.6386 2.41675 10.2244H0.916748ZM4.96772 3.6651L4.73256 2.95292L4.96772 3.6651ZM1.90056 6.78217L1.18618 6.55377L1.90056 6.78217ZM9.88416 0.517122C9.61748 0.200182 9.14435 0.159442 8.82741 0.426128C8.51047 0.692814 8.46973 1.16594 8.73642 1.48288L9.88416 0.517122ZM10.7202 2.67564L10.1464 3.15851L10.1652 3.18086L10.1856 3.20167L10.7202 2.67564ZM10.6563 4.10817L10.1716 3.53584L10.1541 3.55066L10.1375 3.56653L10.6563 4.10817ZM8.31379 5.31333C8.01465 5.59984 8.00442 6.07461 8.29094 6.37374C8.57745 6.67288 9.05222 6.6831 9.35135 6.39659L8.31379 5.31333ZM10.9979 3.42748L11.7463 3.47695L10.9979 3.42748ZM8.35485 4.17748H10.2657V2.67748H8.35485V4.17748ZM8.35485 2.67748C6.6357 2.67748 5.59555 2.66795 4.73256 2.95292L5.20289 4.37727C5.7791 4.18701 6.5173 4.17748 8.35485 4.17748V2.67748ZM2.41675 10.2244C2.41675 8.35957 2.42573 7.60236 2.61494 7.01057L1.18618 6.55377C0.907762 7.42462 0.916748 8.47469 0.916748 10.2244H2.41675ZM4.73256 2.95292C3.0467 3.5096 1.7307 4.85065 1.18618 6.55377L2.61494 7.01057C3.01552 5.75763 3.98001 4.78108 5.20289 4.37727L4.73256 2.95292ZM8.73642 1.48288L10.1464 3.15851L11.2941 2.19276L9.88416 0.517122L8.73642 1.48288ZM10.1375 3.56653L8.31379 5.31333L9.35135 6.39659L11.1751 4.6498L10.1375 3.56653ZM10.1856 3.20167C10.2313 3.24811 10.254 3.31085 10.2495 3.37801L11.7463 3.47695C11.7774 3.00662 11.6172 2.51782 11.2548 2.1496L10.1856 3.20167ZM10.2495 3.37801C10.2454 3.44113 10.218 3.49655 10.1716 3.53584L11.141 4.6805C11.5145 4.36414 11.7168 3.923 11.7463 3.47695L10.2495 3.37801ZM10.2657 4.17748H10.9979V2.67748H10.2657V4.17748Z" fill="#606060"/>
</svg>
