<svg width="24" height="24" viewBox="0 0 24 24" fill="none" xmlns="http://www.w3.org/2000/svg">
<path d="M17.8411 1.96675L11.8411 2.96675C11.3591 3.04675 10.9971 3.47775 10.9971 3.96675L10.9861 14.4948C10.3921 14.1448 9.73707 13.9667 8.99707 13.9667C6.78807 13.9667 4.99707 15.7577 4.99707 17.9667C4.99707 20.1757 6.78807 21.9667 8.99707 21.9667C11.2061 21.9667 12.9971 20.1757 12.9971 17.9667L13.0101 8.80476L18.1471 7.93477C18.2611 7.91677 18.5211 7.83375 18.7471 7.59175C18.9941 7.33575 18.9971 7.07275 18.9971 6.96675V6.81074V2.96675C18.9971 2.34875 18.4501 1.86475 17.8411 1.96675ZM16.9821 4.13674L16.9871 6.10976L12.9971 6.77876L13.0011 4.79573L16.9821 4.13674ZM8.99707 15.9667C10.1021 15.9667 10.9971 16.8617 10.9971 17.9667C10.9971 19.0717 10.1021 19.9667 8.99707 19.9667C7.89207 19.9667 6.99707 19.0717 6.99707 17.9667C6.99707 16.8617 7.89207 15.9667 8.99707 15.9667Z" fill="white"/>
</svg>
