<svg width="24" height="24" viewBox="0 0 24 24" fill="none" xmlns="http://www.w3.org/2000/svg">
<mask id="mask0_154_11974" style="mask-type:alpha" maskUnits="userSpaceOnUse" x="0" y="0" width="24" height="24">
<rect width="24" height="24" fill="#D9D9D9"/>
</mask>
<g mask="url(#mask0_154_11974)">
<path fill-rule="evenodd" clip-rule="evenodd" d="M16.9497 7.05033C16.5592 6.65981 15.9656 6.62024 15.6239 6.96195L12 10.5859L8.37608 6.96195C8.03437 6.62024 7.44078 6.65981 7.05025 7.05033C6.65973 7.44086 6.62015 8.03445 6.96186 8.37616L10.5858 12.0001L6.96186 15.624C6.62016 15.9657 6.65973 16.5593 7.05025 16.9498C7.44078 17.3404 8.03437 17.3799 8.37608 17.0382L12 13.4143L15.6239 17.0382C15.9656 17.3799 16.5592 17.3404 16.9497 16.9498C17.3403 16.5593 17.3798 15.9657 17.0381 15.624L13.4142 12.0001L17.0381 8.37616C17.3798 8.03445 17.3403 7.44086 16.9497 7.05033Z" fill="#606060"/>
</g>
</svg>
