<svg width="24" height="24" viewBox="0 0 24 24" fill="none" xmlns="http://www.w3.org/2000/svg">
<path d="M3.99072 13.9988C3.43872 13.9988 2.99072 14.4468 2.99072 14.9988V16.9988C2.99072 19.2078 4.78172 20.9988 6.99073 20.9988H16.9907C19.1997 20.9988 20.9907 19.2078 20.9907 16.9988V14.9988C20.9907 14.4468 20.5427 13.9988 19.9907 13.9988C19.4387 13.9988 18.9907 14.4468 18.9907 14.9988V16.9988C18.9907 18.1038 18.0957 18.9988 16.9907 18.9988H6.99073C5.88573 18.9988 4.99072 18.1038 4.99072 16.9988V14.9988C4.99072 14.4468 4.54272 13.9988 3.99072 13.9988Z" fill="white"/>
<path d="M12.991 16.0105C12.991 16.5628 12.543 17.0105 11.991 17.0105C11.439 17.0106 10.991 16.5628 10.991 16.0105L10.991 5.4485L7.99096 8.41649L6.58495 7.01049L11.272 2.29149C11.663 1.90149 12.319 1.90149 12.71 2.29149L17.397 7.01049L15.991 8.41649L12.991 5.4485L12.991 16.0105Z" fill="white"/>
</svg>
