<svg width="12" height="11" viewBox="0 0 12 11" fill="none" xmlns="http://www.w3.org/2000/svg">
<path d="M11.0835 10.2244C11.0835 10.6386 10.7477 10.9744 10.3335 10.9744C9.91928 10.9744 9.5835 10.6386 9.5835 10.2244H11.0835ZM7.03252 3.6651L7.26769 2.95292L7.03252 3.6651ZM10.0997 6.78217L10.8141 6.55377L10.0997 6.78217ZM2.11608 0.517122C2.38277 0.200182 2.85589 0.159442 3.17283 0.426128C3.48977 0.692814 3.53051 1.16594 3.26383 1.48288L2.11608 0.517122ZM1.28001 2.67564L1.85388 3.15851L1.83508 3.18086L1.8146 3.20167L1.28001 2.67564ZM1.34395 4.10817L1.82866 3.53584L1.84617 3.55066L1.86274 3.56653L1.34395 4.10817ZM3.68646 5.31333C3.98559 5.59984 3.99582 6.07461 3.70931 6.37374C3.42279 6.67288 2.94803 6.6831 2.64889 6.39659L3.68646 5.31333ZM1.00233 3.42748L0.253961 3.47695L1.00233 3.42748ZM3.6454 4.17748H1.73451V2.67748H3.6454V4.17748ZM3.6454 2.67748C5.36454 2.67748 6.40469 2.66795 7.26769 2.95292L6.79736 4.37727C6.22115 4.18701 5.48294 4.17748 3.6454 4.17748V2.67748ZM9.5835 10.2244C9.5835 8.35957 9.57451 7.60236 9.38531 7.01057L10.8141 6.55377C11.0925 7.42462 11.0835 8.47469 11.0835 10.2244H9.5835ZM7.26769 2.95292C8.95354 3.5096 10.2695 4.85065 10.8141 6.55377L9.38531 7.01057C8.98472 5.75763 8.02023 4.78108 6.79736 4.37727L7.26769 2.95292ZM3.26383 1.48288L1.85388 3.15851L0.70614 2.19276L2.11608 0.517122L3.26383 1.48288ZM1.86274 3.56653L3.68646 5.31333L2.64889 6.39659L0.82517 4.6498L1.86274 3.56653ZM1.8146 3.20167C1.76891 3.24811 1.74625 3.31085 1.75069 3.37801L0.253961 3.47695C0.222871 3.00662 0.383094 2.51782 0.745419 2.1496L1.8146 3.20167ZM1.75069 3.37801C1.75487 3.44113 1.78227 3.49655 1.82866 3.53584L0.859249 4.6805C0.485703 4.36414 0.283445 3.923 0.253961 3.47695L1.75069 3.37801ZM1.73451 4.17748H1.00233V2.67748H1.73451V4.17748Z" fill="#606060"/>
</svg>
