<svg width="18" height="20" viewBox="0 0 18 20" fill="none" xmlns="http://www.w3.org/2000/svg">
<g clip-path="url(#clip0_154_12077)">
<path d="M13.3399 7.20154C14.6532 8.12189 16.2621 8.66341 17.9997 8.66341V5.38547C17.6709 5.38554 17.3429 5.35189 17.0211 5.28506V7.86527C15.2836 7.86527 13.675 7.32382 12.3614 6.40354V13.0929C12.3614 16.4393 9.59416 19.1519 6.18091 19.1519C4.90734 19.1519 3.72355 18.7744 2.74023 18.1271C3.86256 19.2521 5.42772 19.95 7.15923 19.95C10.5728 19.95 13.3401 17.2374 13.3401 13.8909V7.20154H13.3399ZM14.5472 3.89451C13.876 3.17568 13.4353 2.24672 13.3399 1.21968V0.798096H12.4126C12.646 2.10341 13.4423 3.21858 14.5472 3.89451ZM4.89911 15.5592C4.52413 15.0772 4.32143 14.4875 4.32234 13.8813C4.32234 12.3508 5.58803 11.1098 7.1496 11.1098C7.44057 11.1097 7.72983 11.1535 8.0072 11.2397V7.88844C7.68306 7.84492 7.35597 7.82637 7.02902 7.8332V10.4416C6.75151 10.3553 6.4621 10.3116 6.17099 10.3118C4.60949 10.3118 3.34387 11.5526 3.34387 13.0833C3.34387 14.1657 3.97647 15.1027 4.89911 15.5592Z" fill="#FF004F"/>
<path d="M12.3611 6.40348C13.6748 7.32375 15.2833 7.8652 17.0209 7.8652V5.28499C16.051 5.08244 15.1924 4.58561 14.5469 3.89451C13.4419 3.21851 12.6458 2.10334 12.4123 0.798096H9.97648V13.8907C9.97092 15.4171 8.70741 16.6529 7.14921 16.6529C6.23107 16.6529 5.4153 16.2239 4.89872 15.5591C3.97622 15.1027 3.34355 14.1656 3.34355 13.0834C3.34355 11.5529 4.60917 10.3119 6.17067 10.3119C6.46985 10.3119 6.7582 10.3575 7.0287 10.4417V7.83327C3.67535 7.9012 0.978516 10.5873 0.978516 13.8908C0.978516 15.5399 1.65007 17.0349 2.74005 18.1272C3.72338 18.7744 4.90709 19.152 6.18073 19.152C9.59405 19.152 12.3612 16.4393 12.3612 13.0929V6.40354L12.3611 6.40348Z" fill="white"/>
<path d="M17.0209 5.28483V4.58731C16.1463 4.58861 15.2889 4.34849 14.5469 3.89441C15.2037 4.59939 16.0687 5.08554 17.0209 5.28497V5.28483ZM12.4123 0.797931C12.39 0.673214 12.3729 0.547663 12.3611 0.421586V0H8.99775V13.0928C8.99241 14.619 7.72889 15.8548 6.17063 15.8548C5.72887 15.8555 5.29315 15.7542 4.89867 15.5592C5.41526 16.2238 6.23102 16.6528 7.14916 16.6528C8.70729 16.6528 9.97094 15.417 9.97643 13.8907V0.798H12.4123V0.797931ZM7.02886 7.8331V7.09041C6.74781 7.05273 6.46448 7.03389 6.18082 7.034C2.76715 7.034 0 9.74669 0 13.0928C0 15.1906 1.08752 17.0394 2.74015 18.127C1.65016 17.0347 0.978609 15.5397 0.978609 13.8906C0.978609 10.5872 3.67538 7.90103 7.02886 7.8331Z" fill="#00F2EA"/>
</g>
<defs>
<clipPath id="clip0_154_12077">
<rect width="18" height="20" fill="white"/>
</clipPath>
</defs>
</svg>
